<?xml version="1.0" encoding="UTF-8" standalone="no"?>
<!-- Created with Inkscape (http://www.inkscape.org/) -->

<svg
   width="160mm"
   height="112.95446mm"
   viewBox="0 0 160 112.95446"
   version="1.1"
   id="svg1"
   sodipodi:docname="process.svg"
   inkscape:export-filename="mc_diagram.svg"
   inkscape:export-xdpi="200"
   inkscape:export-ydpi="200"
   inkscape:version="1.3.2 (091e20e, 2023-11-25)"
   xmlns:inkscape="http://www.inkscape.org/namespaces/inkscape"
   xmlns:sodipodi="http://sodipodi.sourceforge.net/DTD/sodipodi-0.dtd"
   xmlns="http://www.w3.org/2000/svg"
   xmlns:svg="http://www.w3.org/2000/svg"
   xmlns:rdf="http://www.w3.org/1999/02/22-rdf-syntax-ns#"
   xmlns:cc="http://creativecommons.org/ns#"
   xmlns:dc="http://purl.org/dc/elements/1.1/">
  <sodipodi:namedview
     id="namedview1"
     pagecolor="#505050"
     bordercolor="#eeeeee"
     borderopacity="1"
     inkscape:showpageshadow="0"
     inkscape:pageopacity="0"
     inkscape:pagecheckerboard="0"
     inkscape:deskcolor="#d1d1d1"
     inkscape:document-units="mm"
     inkscape:zoom="0.91907484"
     inkscape:cx="249.70763"
     inkscape:cy="194.76107"
     inkscape:window-width="1440"
     inkscape:window-height="847"
     inkscape:window-x="0"
     inkscape:window-y="25"
     inkscape:window-maximized="0"
     inkscape:current-layer="g4" />
  <defs
     id="defs1">
    <marker
       style="overflow:visible"
       id="ArrowTriangleStylized"
       refX="0"
       refY="0"
       orient="auto-start-reverse"
       markerWidth="1"
       markerHeight="1"
       viewBox="0 0 1 1"
       preserveAspectRatio="xMidYMid">
      <path
         transform="scale(0.5)"
         style="fill:context-stroke;fill-rule:evenodd;stroke:context-stroke;stroke-width:1pt"
         d="m 6,0 c -3,1 -7,3 -9,5 0,0 0,-4 2,-5 -2,-1 -2,-5 -2,-5 2,2 6,4 9,5 z"
         id="path4" />
    </marker>
    <rect
       x="43.47237"
       y="36.226974"
       width="137.34254"
       height="25.250557"
       id="rect1-4" />
    <rect
       x="43.47237"
       y="36.226974"
       width="178.71518"
       height="29.472256"
       id="rect1-2" />
    <rect
       x="43.47237"
       y="36.226974"
       width="68.106705"
       height="36.226971"
       id="rect1-8" />
    <rect
       x="43.47237"
       y="36.226974"
       width="68.106705"
       height="36.226971"
       id="rect1-1" />
    <rect
       x="43.47237"
       y="36.226974"
       width="68.106705"
       height="36.226971"
       id="rect1-1-5" />
    <rect
       x="43.47237"
       y="36.226974"
       width="202.35669"
       height="32.849613"
       id="rect1-1-8" />
    <rect
       x="43.47237"
       y="36.226974"
       width="68.106705"
       height="36.226971"
       id="rect1-1-4" />
    <rect
       x="43.47237"
       y="36.226974"
       width="100.1916"
       height="19.340179"
       id="rect1-1-9" />
    <rect
       x="43.47237"
       y="36.226974"
       width="68.106705"
       height="36.226971"
       id="rect1-6-9" />
    <rect
       x="43.47237"
       y="36.226974"
       width="68.106705"
       height="36.226971"
       id="rect1-1-4-3" />
    <rect
       x="43.47237"
       y="36.226974"
       width="68.106705"
       height="36.226971"
       id="rect1-8-7" />
    <rect
       x="43.47237"
       y="36.226974"
       width="184.90179"
       height="36.226971"
       id="rect1-1-5-5" />
    <rect
       x="43.47237"
       y="36.226974"
       width="68.106705"
       height="36.226971"
       id="rect1-1-7" />
    <rect
       x="43.47237"
       y="36.226974"
       width="68.106705"
       height="36.226971"
       id="rect1-6-9-0" />
    <rect
       x="43.47237"
       y="36.226974"
       width="68.106705"
       height="36.226971"
       id="rect1-6-9-02" />
    <marker
       style="overflow:visible"
       id="ArrowTriangleStylized-1"
       refX="0"
       refY="0"
       orient="auto-start-reverse"
       markerWidth="1"
       markerHeight="1"
       viewBox="0 0 1 1"
       preserveAspectRatio="xMidYMid">
      <path
         transform="scale(0.5)"
         style="fill:context-stroke;fill-rule:evenodd;stroke:context-stroke;stroke-width:1pt"
         d="m 6,0 c -3,1 -7,3 -9,5 0,0 0,-4 2,-5 -2,-1 -2,-5 -2,-5 2,2 6,4 9,5 z"
         id="path4-9" />
    </marker>
    <marker
       style="overflow:visible"
       id="ArrowTriangleStylized-0"
       refX="0"
       refY="0"
       orient="auto-start-reverse"
       markerWidth="1"
       markerHeight="1"
       viewBox="0 0 1 1"
       preserveAspectRatio="xMidYMid">
      <path
         transform="scale(0.5)"
         style="fill:context-stroke;fill-rule:evenodd;stroke:context-stroke;stroke-width:1pt"
         d="m 6,0 c -3,1 -7,3 -9,5 0,0 0,-4 2,-5 -2,-1 -2,-5 -2,-5 2,2 6,4 9,5 z"
         id="path4-97" />
    </marker>
    <marker
       style="overflow:visible"
       id="ArrowTriangleStylized-0-6"
       refX="0"
       refY="0"
       orient="auto-start-reverse"
       markerWidth="1"
       markerHeight="1"
       viewBox="0 0 1 1"
       preserveAspectRatio="xMidYMid">
      <path
         transform="scale(0.5)"
         style="fill:context-stroke;fill-rule:evenodd;stroke:context-stroke;stroke-width:1pt"
         d="m 6,0 c -3,1 -7,3 -9,5 0,0 0,-4 2,-5 -2,-1 -2,-5 -2,-5 2,2 6,4 9,5 z"
         id="path4-97-1" />
    </marker>
    <marker
       style="overflow:visible"
       id="ArrowTriangleStylized-0-6-7"
       refX="0"
       refY="0"
       orient="auto-start-reverse"
       markerWidth="1"
       markerHeight="1"
       viewBox="0 0 1 1"
       preserveAspectRatio="xMidYMid">
      <path
         transform="scale(0.5)"
         style="fill:context-stroke;fill-rule:evenodd;stroke:context-stroke;stroke-width:1pt"
         d="m 6,0 c -3,1 -7,3 -9,5 0,0 0,-4 2,-5 -2,-1 -2,-5 -2,-5 2,2 6,4 9,5 z"
         id="path4-97-1-5" />
    </marker>
  </defs>
  <metadata
     id="metadata1">
    <rdf:RDF>
      <cc:Work
         rdf:about="">
        <dc:format>image/svg+xml</dc:format>
        <dc:type
           rdf:resource="http://purl.org/dc/dcmitype/StillImage" />
      </cc:Work>
    </rdf:RDF>
  </metadata>
  <g
     id="g38"
     transform="translate(25.948482,28.059917)"
     style="fill:#ffffff"
     inkscape:label="arrows">
    <path
       style="fill:#ffffff;fill-opacity:1;stroke:#ffffff;stroke-width:0.4;stroke-linecap:round;stroke-linejoin:round;stroke-dasharray:none;stroke-opacity:1;marker-end:url(#ArrowTriangleStylized-0-6);paint-order:stroke fill markers"
       d="M 68.630718,44.273372 37.447516,104.10353"
       id="path37"
       transform="translate(4.4473642,-32.059916)"
       sodipodi:nodetypes="cc" />
    <path
       style="fill:#ffffff;fill-opacity:1;stroke:#ffffff;stroke-width:0.4;stroke-linecap:round;stroke-linejoin:round;stroke-dasharray:none;stroke-opacity:1;marker-end:url(#ArrowTriangleStylized-0-6);paint-order:stroke fill markers"
       d="m 69.433328,10.477679 0.02463,26.915315"
       id="path37-0"
       transform="translate(4.4473642,-32.059916)"
       sodipodi:nodetypes="cc" />
    <path
       style="fill:#ffffff;fill-opacity:1;stroke:#ffffff;stroke-width:0.4;stroke-linecap:round;stroke-linejoin:round;stroke-dasharray:none;stroke-opacity:1;marker-end:url(#ArrowTriangleStylized-0-6);paint-order:stroke fill markers"
       d="M 69.493725,43.746797 83.918602,71.944708"
       id="path37-4"
       transform="translate(4.4473642,-32.059916)"
       sodipodi:nodetypes="cc" />
    <path
       style="fill:#ffffff;fill-opacity:1;stroke:#ffffff;stroke-width:0.4;stroke-linecap:round;stroke-linejoin:round;stroke-dasharray:none;stroke-opacity:1;marker-end:url(#ArrowTriangleStylized-0-6);paint-order:stroke fill markers"
       d="M 85.489723,77.829289 70.120977,104.13771"
       id="path37-4-5"
       transform="translate(4.4473642,-32.059916)"
       sodipodi:nodetypes="cc" />
    <path
       style="fill:#ffffff;fill-opacity:1;stroke:#ffffff;stroke-width:0.4;stroke-linecap:round;stroke-linejoin:round;stroke-dasharray:none;stroke-opacity:1;marker-end:url(#ArrowTriangleStylized-0-6);paint-order:stroke fill markers"
       d="M 85.571363,77.719827 101.45184,104.17359"
       id="path37-4-5-5"
       transform="translate(4.4473642,-32.059916)"
       sodipodi:nodetypes="cc" />
  </g>
  <path
     style="fill:#f5c37b;fill-opacity:1;stroke:none;stroke-width:0.0659339;stroke-linecap:round;stroke-linejoin:round;stroke-dasharray:none;stroke-opacity:1;paint-order:stroke fill markers"
     id="rect14-1"
     width="160"
     height="11.136678"
     x="41.321121"
     y="-92.573341"
     d="M 0.9191,112.95446 H 159 a 1,1 0 0 0 1,-1 v -9.59427 a 0.54241036,0.54241036 0 0 0 -0.54241,-0.54241 H 1 a 1,1 0 0 0 -1,1 v 9.21758 a 0.9191,0.9191 0 0 0 0.9191,0.9191 z"
     ry="0" />
  <path
     style="fill:#f3995f;fill-opacity:1;stroke:none;stroke-width:0.0659339;stroke-linecap:round;stroke-linejoin:round;stroke-dasharray:none;stroke-opacity:1;paint-order:stroke fill markers"
     id="rect14-1-7"
     width="160"
     height="11.136681"
     x="41.321121"
     y="-92.573341"
     d="M 0.9191,11.136681 H 159 a 1,1 0 0 0 1,-1 V 0.542411 A 0.54241036,0.54241036 0 0 0 159.45759,10e-7 H 1 a 1,1 0 0 0 -1,1 v 9.21758 a 0.9191,0.9191 0 0 0 0.9191,0.9191 z"
     ry="0" />
  <g
     id="g3"
     inkscape:label="state text">
    <text
       xml:space="preserve"
       transform="matrix(0.26458333,0,0,0.26458333,-10.413714,95.628542)"
       id="text1-14-7"
       style="font-size:14.6667px;line-height:1.3;font-family:'Noto Serif';-inkscape-font-specification:'Noto Serif';text-align:start;white-space:pre;shape-inside:url(#rect1-1-5);display:inline;fill:#000000;stroke:#000000;stroke-width:0.249199;stroke-dasharray:none;stroke-opacity:1"
       x="-73.999916"
       y="0"><tspan
         x="43.472656"
         y="49.938096"
         id="tspan57"><tspan
           style="font-family:Arial;-inkscape-font-specification:Arial"
           id="tspan56">next state</tspan></tspan></text>
    <text
       xml:space="preserve"
       transform="matrix(0.26458333,0,0,0.26458333,-10.413714,-6.189234)"
       id="text1-14-7-2"
       style="font-size:14.6667px;line-height:1.3;font-family:'Noto Serif';-inkscape-font-specification:'Noto Serif';text-align:start;white-space:pre;shape-inside:url(#rect1-1-5-5);display:inline;fill:#000000;stroke:#000000;stroke-width:0.249199;stroke-dasharray:none;stroke-opacity:1"
       x="-73.999916"
       y="0"><tspan
         x="43.472656"
         y="49.938096"
         id="tspan59"><tspan
           style="font-family:Arial;-inkscape-font-specification:Arial"
           id="tspan58">original state</tspan></tspan></text>
  </g>
  <g
     id="g2"
     inkscape:label="side text">
    <path
       style="fill:none;stroke:none;stroke-width:0.0659339;stroke-linecap:round;stroke-linejoin:round;stroke-dasharray:none;stroke-opacity:1;paint-order:stroke fill markers"
       id="rect14-1-2-63"
       width="37.29982"
       height="6.9307938"
       x="41.321121"
       y="-88.48069"
       d="m 8.327479,93.983532 h 35.38072 a 1,1 0 0 0 1,-1 v -5.388383 a 0.54241036,0.54241036 0 0 0 -0.54241,-0.542411 H 8.408379 a 1,1 0 0 0 -1,1 v 5.011694 a 0.9191,0.9191 0 0 0 0.9191,0.9191 z"
       ry="0" />
    <text
       xml:space="preserve"
       transform="matrix(0.26458333,0,0,0.26458333,-2.07379,77.88468)"
       id="text1-5"
       style="font-size:17.3333px;line-height:1.3;font-family:'Noto Serif';-inkscape-font-specification:'Noto Serif';text-align:start;white-space:pre;shape-inside:url(#rect1-4);display:inline;fill:#000000;stroke:#000000;stroke-width:0.249199;stroke-dasharray:none;stroke-opacity:1"
       x="-73.999916"
       y="0"><tspan
         x="43.472656"
         y="52.431034"
         id="tspan68"><tspan
           style="font-style:italic;font-family:Arial;-inkscape-font-specification:'Arial Italic';fill:#ffffff;stroke:#ffffff"
           id="tspan60">ğ‘ </tspan><tspan
           style="font-style:italic;font-size:14.6667px;font-family:Arial;-inkscape-font-specification:'Arial Italic';fill:#ffffff;stroke:#ffffff"
           id="tspan61">= exp</tspan><tspan
           style="font-style:italic;font-family:Arial;-inkscape-font-specification:'Arial Italic';fill:#ffffff;stroke:#ffffff"
           id="tspan62">(-</tspan><tspan
           style="font-style:italic;font-family:Arial;-inkscape-font-specification:'Arial Italic';fill:#ffffff;stroke:#ffffff"
           id="tspan63">ğ›¥</tspan><tspan
           style="font-style:italic;font-family:Arial;-inkscape-font-specification:'Arial Italic';fill:#ffffff;stroke:#ffffff"
           id="tspan64">â„‹</tspan><tspan
           style="font-style:italic;font-family:Arial;-inkscape-font-specification:'Arial Italic';fill:#ffffff;stroke:#ffffff"
           id="tspan65">/(</tspan><tspan
           style="font-style:italic;font-family:Arial;-inkscape-font-specification:'Arial Italic';fill:#ffffff;stroke:#ffffff"
           id="tspan66">ğ‘˜ğ‘‡</tspan><tspan
           style="font-style:italic;font-family:Arial;-inkscape-font-specification:'Arial Italic';fill:#ffffff;stroke:#ffffff"
           id="tspan67">))</tspan></tspan></text>
    <path
       style="fill:none;stroke:none;stroke-width:0.0659339;stroke-linecap:round;stroke-linejoin:round;stroke-dasharray:none;stroke-opacity:1;paint-order:stroke fill markers"
       id="rect14-1-2-63-8"
       width="39.568089"
       height="6.9307938"
       x="41.321121"
       y="-88.48069"
       d="m 8.327438,59.83275 h 37.648989 a 1,1 0 0 0 1,-1 V 53.444367 A 0.54241036,0.54241036 0 0 0 46.434016,52.901956 H 8.408338 a 1,1 0 0 0 -1,1 v 5.011694 a 0.9191,0.9191 0 0 0 0.9191,0.9191 z"
       ry="0" />
    <text
       xml:space="preserve"
       transform="matrix(0.26458333,0,0,0.26458333,-2.748728,43.925839)"
       id="text1-6"
       style="font-size:17.3333px;line-height:1.3;font-family:'Noto Serif';-inkscape-font-specification:'Noto Serif';text-align:start;white-space:pre;shape-inside:url(#rect1-2);display:inline;fill:#000000;stroke:#000000;stroke-width:0.249199;stroke-dasharray:none;stroke-opacity:1"
       x="-73.999916"
       y="0"><tspan
         x="43.472656"
         y="52.431034"
         id="tspan77"><tspan
           style="font-style:italic;font-family:'Arial Unicode MS';-inkscape-font-specification:'Arial Unicode MS Italic';fill:#ffffff;stroke:#f7f7f7"
           id="tspan69">ğ›¥</tspan><tspan
           style="font-style:italic;font-family:'Arial Unicode MS';-inkscape-font-specification:'Arial Unicode MS Italic';fill:#ffffff;stroke:#f7f7f7"
           id="tspan70">â„‹ </tspan><tspan
           style="font-style:italic;font-size:14.6667px;font-family:'Arial Unicode MS';-inkscape-font-specification:'Arial Unicode MS Italic';fill:#ffffff;stroke:#f7f7f7"
           id="tspan71">=</tspan><tspan
           style="font-style:italic;font-family:'Arial Unicode MS';-inkscape-font-specification:'Arial Unicode MS Italic';fill:#ffffff;stroke:#f7f7f7"
           id="tspan72"> â„‹(</tspan><tspan
           style="font-style:italic;font-family:'Arial Unicode MS';-inkscape-font-specification:'Arial Unicode MS Italic';fill:#ffffff;stroke:#f7f7f7"
           id="tspan73">ğœ</tspan><tspan
           style="font-style:italic;font-family:'Arial Unicode MS';-inkscape-font-specification:'Arial Unicode MS Italic';fill:#ffffff;stroke:#f7f7f7"
           id="tspan74">') - â„‹(</tspan><tspan
           style="font-style:italic;font-family:'Arial Unicode MS';-inkscape-font-specification:'Arial Unicode MS Italic';fill:#ffffff;stroke:#f7f7f7"
           id="tspan75">ğœ</tspan><tspan
           style="font-style:italic;font-family:'Arial Unicode MS';-inkscape-font-specification:'Arial Unicode MS Italic';fill:#ffffff;stroke:#f7f7f7"
           id="tspan76">)</tspan></tspan></text>
  </g>
  <g
     id="g1"
     inkscape:label="white text box"
     style="display:inline">
    <text
       xml:space="preserve"
       transform="matrix(0.30060191,0,0,0.30060191,78.125369,76.435422)"
       id="text1-14-74"
       style="font-size:14.6667px;line-height:1.3;font-family:'Noto Serif';-inkscape-font-specification:'Noto Serif';text-align:start;white-space:pre;shape-inside:url(#rect1-1-4);display:inline;fill:#000000;stroke:#000000;stroke-width:0.249199;stroke-dasharray:none;stroke-opacity:1"
       x="-73.999916"
       y="0"><tspan
         x="43.472656"
         y="49.938096"
         id="tspan81"><tspan
           style="font-style:italic;font-family:Arial;-inkscape-font-specification:'Arial Italic';fill:#ffffff;stroke:#ffffff"
           id="tspan78">ğ›¼ </tspan><tspan
           style="font-style:italic;font-size:11.4153px;font-family:Arial;-inkscape-font-specification:'Arial Italic';fill:#ffffff;stroke:#ffffff"
           id="tspan79">&lt;</tspan><tspan
           style="font-style:italic;font-family:Arial;-inkscape-font-specification:'Arial Italic';fill:#ffffff;stroke:#ffffff"
           id="tspan80"> ğ‘</tspan></tspan></text>
    <path
       style="fill:none;stroke:#ffffff;stroke-width:0.466;stroke-linecap:round;stroke-linejoin:round;stroke-dasharray:1.864, 0.932, 0.466, 0.932;stroke-dashoffset:0;stroke-opacity:1;paint-order:stroke fill markers"
       id="rect14-1-2-6-7"
       width="14.293411"
       height="6.9307938"
       x="53.032066"
       y="-88.337288"
       d="m 130.50354,93.983531 h 12.37431 a 1,1 0 0 0 1,-1 v -5.388383 a 0.54241036,0.54241036 0 0 0 -0.54241,-0.542411 h -12.751 a 1,1 0 0 0 -1,1 v 5.011694 a 0.9191,0.9191 0 0 0 0.9191,0.9191 z"
       ry="0" />
    <text
       xml:space="preserve"
       transform="matrix(0.30060191,0,0,0.30060191,119.31369,76.435422)"
       id="text1-14-74-9"
       style="font-size:14.6667px;line-height:1.3;font-family:'Noto Serif';-inkscape-font-specification:'Noto Serif';text-align:start;white-space:pre;shape-inside:url(#rect1-1-4-3);display:inline;fill:#000000;stroke:#000000;stroke-width:0.249199;stroke-dasharray:none;stroke-opacity:1"
       x="-73.999916"
       y="0"><tspan
         x="43.472656"
         y="49.938096"
         id="tspan85"><tspan
           style="font-style:italic;font-family:Arial;-inkscape-font-specification:'Arial Italic';fill:#ffffff;stroke:#ffffff"
           id="tspan82">ğ›¼ </tspan><tspan
           style="font-style:italic;font-size:11.4153px;font-family:Arial;-inkscape-font-specification:'Arial Italic';fill:#ffffff;stroke:#ffffff"
           id="tspan83">&gt;</tspan><tspan
           style="font-style:italic;font-family:Arial;-inkscape-font-specification:'Arial Italic';fill:#ffffff;stroke:#ffffff"
           id="tspan84"> ğ‘</tspan></tspan></text>
    <path
       style="fill:none;stroke:#ffffff;stroke-width:0.466;stroke-linecap:round;stroke-linejoin:round;stroke-dasharray:1.864, 0.932, 0.466, 0.932;stroke-dashoffset:0;stroke-opacity:1;paint-order:stroke fill markers"
       id="rect14-1-2-63-84-3"
       width="18.774405"
       height="6.9307938"
       x="41.321121"
       y="-88.48069"
       ry="0"
       d="m 68.751308,59.83275 h 16.855305 a 1,1 0 0 0 1,-1 V 53.444367 A 0.54241036,0.54241036 0 0 0 86.064202,52.901956 H 68.832208 a 1,1 0 0 0 -1,1 v 5.011694 a 0.9191,0.9191 0 0 0 0.9191,0.9191 z" />
    <text
       xml:space="preserve"
       transform="matrix(0.26458333,0,0,0.26458333,58.363447,44.171196)"
       id="text1-8"
       style="font-size:17.3333px;line-height:1.3;font-family:'Noto Serif';-inkscape-font-specification:'Noto Serif';text-align:start;white-space:pre;shape-inside:url(#rect1-8);display:inline;fill:#000000;stroke:#000000;stroke-width:0.249199;stroke-dasharray:none;stroke-opacity:1"
       x="-73.999916"
       y="0"><tspan
         x="43.472656"
         y="52.431034"
         id="tspan90"><tspan
           style="font-style:italic;font-family:Arial;-inkscape-font-specification:'Arial Italic';fill:#ffffff;stroke:#ffffff"
           id="tspan86">ğ›¥</tspan><tspan
           style="font-style:italic;font-family:Arial;-inkscape-font-specification:'Arial Italic';fill:#ffffff;stroke:#ffffff"
           id="tspan87">â„‹ </tspan><tspan
           style="font-style:italic;font-size:14.6667px;font-family:Arial;-inkscape-font-specification:'Arial Italic';fill:#ffffff;stroke:#ffffff"
           id="tspan88">&lt;</tspan><tspan
           style="font-style:italic;font-family:Arial;-inkscape-font-specification:'Arial Italic';fill:#ffffff;stroke:#ffffff"
           id="tspan89"> 0</tspan></tspan></text>
    <path
       style="fill:none;stroke:#ffffff;stroke-width:0.466;stroke-linecap:round;stroke-linejoin:round;stroke-dasharray:1.864, 0.932, 0.466, 0.932;stroke-dashoffset:0;stroke-opacity:1;paint-order:stroke fill markers"
       id="rect14-1-2-63-84-3-2"
       width="18.774405"
       height="6.9307938"
       x="41.321121"
       y="-88.48069"
       ry="0"
       d="m 113.66753,59.83275 h 16.85531 a 1,1 0 0 0 1,-1 v -5.388383 a 0.54241036,0.54241036 0 0 0 -0.54242,-0.542411 h -17.23199 a 1,1 0 0 0 -1,1 v 5.011694 a 0.9191,0.9191 0 0 0 0.9191,0.9191 z" />
    <text
       xml:space="preserve"
       transform="matrix(0.26458333,0,0,0.26458333,103.27967,44.171196)"
       id="text1-8-01"
       style="font-size:17.3333px;line-height:1.3;font-family:'Noto Serif';-inkscape-font-specification:'Noto Serif';text-align:start;white-space:pre;shape-inside:url(#rect1-8-7);display:inline;fill:#000000;stroke:#000000;stroke-width:0.249199;stroke-dasharray:none;stroke-opacity:1"
       x="-73.999916"
       y="0"><tspan
         x="43.472656"
         y="52.431034"
         id="tspan95"><tspan
           style="font-style:italic;font-family:Arial;-inkscape-font-specification:'Arial Italic';fill:#ffffff;stroke:#ffffff"
           id="tspan91">ğ›¥</tspan><tspan
           style="font-style:italic;font-family:Arial;-inkscape-font-specification:'Arial Italic';fill:#ffffff;stroke:#ffffff"
           id="tspan92">â„‹ </tspan><tspan
           style="font-style:italic;font-size:14.6667px;font-family:Arial;-inkscape-font-specification:'Arial Italic';fill:#ffffff;stroke:#ffffff"
           id="tspan93">&gt;</tspan><tspan
           style="font-style:italic;font-family:Arial;-inkscape-font-specification:'Arial Italic';fill:#ffffff;stroke:#ffffff"
           id="tspan94"> 0</tspan></tspan></text>
    <path
       style="fill:none;stroke:#ffffff;stroke-width:0.466;stroke-linecap:round;stroke-linejoin:round;stroke-dasharray:1.864, 0.932, 0.466, 0.932;stroke-dashoffset:0;stroke-opacity:1;paint-order:stroke fill markers"
       id="rect14-1-2-63-84-3-5"
       width="29.306778"
       height="6.9307938"
       x="41.321121"
       y="-88.48069"
       ry="0"
       d="m 106.48612,26.148209 h 27.38768 a 1,1 0 0 0 1,-1 v -5.388383 a 0.54241036,0.54241036 0 0 0 -0.54241,-0.542411 h -27.76437 a 1,1 0 0 0 -1,1 v 5.011694 a 0.9191,0.9191 0 0 0 0.9191,0.9191 z" />
    <text
       xml:space="preserve"
       transform="matrix(0.26458333,0,0,0.26458333,96.607028,10.627376)"
       id="text1-14-9"
       style="font-size:14.6667px;line-height:1.3;font-family:'Noto Serif';-inkscape-font-specification:'Noto Serif';text-align:start;white-space:pre;shape-inside:url(#rect1-1-9);display:inline;fill:#000000;stroke:#000000;stroke-width:0.249199;stroke-dasharray:none;stroke-opacity:1"
       x="-73.999916"
       y="0"><tspan
         x="43.472656"
         y="49.938096"
         id="tspan97"><tspan
           style="font-family:Arial;-inkscape-font-specification:Arial;fill:#ffffff;stroke:#ffffff"
           id="tspan96">small change</tspan></tspan></text>
    <path
       style="fill:none;stroke:#ffffff;stroke-width:0.466;stroke-linecap:round;stroke-linejoin:round;stroke-dasharray:1.864, 0.932, 0.466, 0.932;stroke-dashoffset:0;stroke-opacity:1;paint-order:stroke fill markers"
       id="rect14-1-2-6"
       width="14.293411"
       height="6.9307938"
       x="53.032066"
       y="-88.337288"
       d="m 89.315216,93.983531 h 12.374314 a 1,1 0 0 0 1,-1 v -5.388383 a 0.54241036,0.54241036 0 0 0 -0.54241,-0.542411 H 89.396116 a 1,1 0 0 0 -1,1 v 5.011694 a 0.9191,0.9191 0 0 0 0.9191,0.9191 z"
       ry="0" />
  </g>
  <g
     id="g4"
     inkscape:label="state boxes">
    <path
       style="fill:#e7ae00;fill-opacity:1;stroke:none;stroke-width:0.0659339;stroke-linecap:round;stroke-linejoin:round;stroke-dasharray:none;stroke-opacity:1;paint-order:stroke fill markers"
       id="rect14-3"
       width="8.5504932"
       height="6.9307938"
       x="41.321121"
       y="-88.48069"
       d="m 96.321381,42.990479 h 6.631389 a 1,1 0 0 0 1,-1 v -5.388383 a 0.54241036,0.54241036 0 0 0 -0.54241,-0.542411 h -7.008079 a 1,1 0 0 0 -1,1 v 5.011694 a 0.9191,0.9191 0 0 0 0.9191,0.9191 z"
       ry="0" />
    <text
       xml:space="preserve"
       transform="matrix(0.26458333,0,0,0.26458333,86.272154,27.26472)"
       id="text1-1-8-1"
       style="font-size:17.3333px;line-height:1.3;font-family:'Noto Serif';-inkscape-font-specification:'Noto Serif';text-align:start;white-space:pre;shape-inside:url(#rect1-6-9-02);display:inline;fill:#000000;stroke:#000000;stroke-width:0.249199;stroke-dasharray:none;stroke-opacity:1"
       x="-73.999916"
       y="0"><tspan
         x="43.472656"
         y="52.431034"
         id="tspan99">ğœ<tspan
   style="font-style:italic;-inkscape-font-specification:'Noto Serif Italic'"
   id="tspan98">'</tspan></tspan></text>
    <path
       style="fill:#e7ae00;fill-opacity:1;stroke:none;stroke-width:0.0659339;stroke-linecap:round;stroke-linejoin:round;stroke-dasharray:none;stroke-opacity:1;paint-order:stroke fill markers"
       id="rect14"
       width="8.5504932"
       height="6.9307938"
       x="41.321121"
       y="-88.48069"
       d="m 63.402448,103.89501 h 6.631393 a 1,1 0 0 1 1,1 v 5.38838 a 0.54241036,0.54241036 0 0 1 -0.54241,0.54241 h -7.008083 a 1,1 0 0 1 -1,-1 v -5.01169 a 0.9191,0.9191 0 0 1 0.9191,-0.9191 z"
       ry="0" />
    <text
       xml:space="preserve"
       transform="matrix(0.26458333,0,0,0.26458333,53.353221,95.100043)"
       id="text1-1-8"
       style="font-size:17.3333px;line-height:1.3;font-family:'Noto Serif';-inkscape-font-specification:'Noto Serif';text-align:start;white-space:pre;shape-inside:url(#rect1-6-9);display:inline;fill:#000000;stroke:#000000;stroke-width:0.249199;stroke-dasharray:none;stroke-opacity:1"
       x="-73.999916"
       y="0"><tspan
         x="43.472656"
         y="52.431034"
         id="tspan101">ğœ<tspan
   style="font-style:italic;-inkscape-font-specification:'Noto Serif Italic'"
   id="tspan100">'</tspan></tspan></text>
    <path
       style="fill:#e7ae00;fill-opacity:1;stroke:none;stroke-width:0.0659339;stroke-linecap:round;stroke-linejoin:round;stroke-dasharray:none;stroke-opacity:1;paint-order:stroke fill markers"
       id="rect14-7"
       width="8.5504932"
       height="6.9307938"
       x="41.321121"
       y="-88.48069"
       d="m 96.321375,110.8258 h 6.631395 a 1,1 0 0 0 1,-1 v -5.38838 a 0.54241036,0.54241036 0 0 0 -0.54241,-0.54241 h -7.008085 a 1,1 0 0 0 -1,1 v 5.01169 a 0.9191,0.9191 0 0 0 0.9191,0.9191 z"
       ry="0" />
    <text
       xml:space="preserve"
       transform="matrix(0.26458333,0,0,0.26458333,86.272148,95.100043)"
       id="text1-1-8-8"
       style="font-size:17.3333px;line-height:1.3;font-family:'Noto Serif';-inkscape-font-specification:'Noto Serif';text-align:start;white-space:pre;shape-inside:url(#rect1-6-9-0);display:inline;fill:#000000;stroke:#000000;stroke-width:0.249199;stroke-dasharray:none;stroke-opacity:1"
       x="-73.999916"
       y="0"><tspan
         x="43.472656"
         y="52.431034"
         id="tspan103">ğœ<tspan
   style="font-style:italic;-inkscape-font-specification:'Noto Serif Italic'"
   id="tspan102">'</tspan></tspan></text>
    <path
       style="fill:#ff6600;stroke:none;stroke-width:0.0659339;stroke-linecap:round;stroke-linejoin:round;stroke-dasharray:none;stroke-opacity:1;paint-order:stroke fill markers"
       id="rect14-1-2"
       width="8.5504932"
       height="6.9307938"
       x="41.321121"
       y="-88.48069"
       d="m 129.2403,110.8258 h 6.63139 a 1,1 0 0 0 1,-1 v -5.38838 a 0.54241036,0.54241036 0 0 0 -0.54241,-0.54241 h -7.00808 a 1,1 0 0 0 -1,1 v 5.01169 a 0.9191,0.9191 0 0 0 0.9191,0.9191 z"
       ry="0" />
    <text
       xml:space="preserve"
       transform="matrix(0.26458333,0,0,0.26458333,119.74828,95.085022)"
       id="text1-14"
       style="font-size:17.3333px;line-height:1.3;font-family:'Noto Serif';-inkscape-font-specification:'Noto Serif';text-align:start;white-space:pre;shape-inside:url(#rect1-1);display:inline;fill:#000000;stroke:#000000;stroke-width:0.249199;stroke-dasharray:none;stroke-opacity:1"
       x="-73.999916"
       y="0"><tspan
         x="43.472656"
         y="52.431034"
         id="tspan104">ğœ</tspan></text>
    <path
       style="fill:#ff6600;stroke:none;stroke-width:0.0659339;stroke-linecap:round;stroke-linejoin:round;stroke-dasharray:none;stroke-opacity:1;paint-order:stroke fill markers"
       id="rect14-1-2-7"
       width="8.5504932"
       height="6.9307938"
       x="41.321121"
       y="-88.48069"
       d="m 96.321379,9.305718 h 6.631391 a 1,1 0 0 0 1,-1 V 2.917335 a 0.54241036,0.54241036 0 0 0 -0.54241,-0.542411 h -7.008081 a 1,1 0 0 0 -1,1 v 5.011694 a 0.9191,0.9191 0 0 0 0.9191,0.9191 z"
       ry="0" />
    <text
       xml:space="preserve"
       transform="matrix(0.26458333,0,0,0.26458333,86.829366,-6.435062)"
       id="text1-14-5"
       style="font-size:17.3333px;line-height:1.3;font-family:'Noto Serif';-inkscape-font-specification:'Noto Serif';text-align:start;white-space:pre;shape-inside:url(#rect1-1-7);display:inline;fill:#000000;stroke:#000000;stroke-width:0.249199;stroke-dasharray:none;stroke-opacity:1"
       x="-73.999916"
       y="0"><tspan
         x="43.472656"
         y="52.431034"
         id="tspan105">ğœ</tspan></text>
    <path
       style="fill:#ffbf94;fill-opacity:1;stroke:none;stroke-width:0.466;stroke-linecap:round;stroke-linejoin:round;stroke-dasharray:none;stroke-dashoffset:0;stroke-opacity:1;paint-order:stroke fill markers"
       id="rect14-1-2-63-84"
       width="34.372372"
       height="6.9307938"
       x="41.321121"
       y="-88.48069"
       ry="0"
       d="m 99.869903,76.908261 h 32.453267 a 1,1 0 0 0 1,-1 v -5.388383 a 0.54241036,0.54241036 0 0 0 -0.54241,-0.542411 H 99.950803 a 1,1 0 0 0 -1,1 v 5.011694 a 0.9191,0.9191 0 0 0 0.9191,0.9191 z" />
    <text
       xml:space="preserve"
       transform="matrix(0.26458333,0,0,0.26458333,89.610798,60.894166)"
       id="text1-14-4"
       style="font-size:14.6667px;line-height:1.3;font-family:'Noto Serif';-inkscape-font-specification:'Noto Serif';text-align:start;white-space:pre;shape-inside:url(#rect1-1-8);display:inline;fill:#000000;stroke:#000000;stroke-width:0.249199;stroke-dasharray:none;stroke-opacity:1"
       x="-73.999916"
       y="0"><tspan
         x="43.472656"
         y="52.279941"
         id="tspan110"><tspan
           style="font-style:italic;font-family:Arial;-inkscape-font-specification:'Arial Italic'"
           id="tspan106">choose </tspan><tspan
           style="font-style:italic;font-size:17.3333px;font-family:Arial;-inkscape-font-specification:'Arial Italic'"
           id="tspan107">ğ›¼</tspan><tspan
           style="font-style:italic;font-size:17.3333px;font-family:Arial;-inkscape-font-specification:'Arial Italic'"
           id="tspan108"> âˆˆ</tspan><tspan
           style="font-style:italic;font-family:Arial;-inkscape-font-specification:'Arial Italic'"
           id="tspan109"> [0, 1)</tspan></tspan></text>
  </g>
</svg>
